# xmcd
#
# Track frame offsets:
#	150
#	22548
#	46911
#	67574
#	82664
#	100210
#	117041
#	132297
#	148780
#	163017
#	181895
#	199997
#	217839
#	232372
#	245738
#	260932
#
# Disc length: 3641 seconds
# Revision: 0
# Processed by: cddbd v1.5.2PL0 Copyright (c) Steve Scherf et al.
# Submitted via: dBpowerAMP V12.0
#
DISCID=d80e3710
DTITLE=Various Artist - Drugs or Jesus
DYEAR=2006
DGENRE=Country - Rock'n slow
TTITLE0=Phil Fasan - The heart of rock'n roll
TTITLE1=Phil Fasan - Against the wind
TTITLE2=Phil Fasan - Drugs or Jesus
TTITLE3=Phil Fasan - Drivin' my life away
TTITLE4=Phil Fasan - Start the car
TTITLE5=Phil Fasan - Austin
TTITLE6=Phil Fasan with Michaël Jones - Freedom
TTITLE7=Phil Fasan - You're gone
TTITLE8=Phil Fasan - Peace of mind
TTITLE9=Phil Fasan with Maryline - Islands in the stream
TTITLE10=Phil Fasan - We were in love
TTITLE11=Phil Fasan with Alan Williams - Big time
TTITLE12=Phil Fasan - Somewhere in my broken heart
TTITLE13=Phil Fasan - I wanna talk about me
TTITLE14=Phil Fasan - Baby blue
TTITLE15=Phil Fasan - Have you ever seen the rain ?
EXTD=
EXTT0=
EXTT1=
EXTT2=
EXTT3=
EXTT4=
EXTT5=
EXTT6=
EXTT7=
EXTT8=
EXTT9=
EXTT10=
EXTT11=
EXTT12=
EXTT13=
EXTT14=
EXTT15=
PLAYORDER=
